<svg xmlns="http://www.w3.org/2000/svg" width="1440" height="900"><path d="M651,464L797,519L716,362Z" fill="#334e69" stroke="#334e69" stroke-width="1.51"/><path d="M797,519L821,373L716,362Z" fill="#314a64" stroke="#314a64" stroke-width="1.51"/><path d="M651,464L773,601L797,519Z" fill="#2f4862" stroke="#2f4862" stroke-width="1.51"/><path d="M821,373L756,277L716,362Z" fill="#314860" stroke="#314860" stroke-width="1.51"/><path d="M716,362L482,396L651,464Z" fill="#324a62" stroke="#324a62" stroke-width="1.51"/><path d="M821,373L879,336L756,277Z" fill="#2f455d" stroke="#2f455d" stroke-width="1.51"/><path d="M895,558L879,336L821,373Z" fill="#2e465f" stroke="#2e465f" stroke-width="1.51"/><path d="M895,558L821,373L797,519Z" fill="#2d4760" stroke="#2d4760" stroke-width="1.51"/><path d="M773,601L895,558L797,519Z" fill="#2a435b" stroke="#2a435b" stroke-width="1.51"/><path d="M651,464L700,687L773,601Z" fill="#2d455e" stroke="#2d455e" stroke-width="1.51"/><path d="M773,601L955,629L895,558Z" fill="#273e55" stroke="#273e55" stroke-width="1.51"/><path d="M756,277L699,211L716,362Z" fill="#32485f" stroke="#32485f" stroke-width="1.51"/><path d="M841,145L699,211L756,277Z" fill="#2f4459" stroke="#2f4459" stroke-width="1.51"/><path d="M466,233L482,396L716,362Z" fill="#31465b" stroke="#31465b" stroke-width="1.51"/><path d="M651,464L436,570L700,687Z" fill="#2c435a" stroke="#2c435a" stroke-width="1.51"/><path d="M895,558L1021,564L879,336Z" fill="#2b435b" stroke="#2b435b" stroke-width="1.51"/><path d="M915,744L955,629L773,601Z" fill="#253a51" stroke="#253a51" stroke-width="1.51"/><path d="M955,629L1021,564L895,558Z" fill="#253c52" stroke="#253c52" stroke-width="1.51"/><path d="M879,336L841,145L756,277Z" fill="#2e4358" stroke="#2e4358" stroke-width="1.51"/><path d="M972,164L841,145L879,336Z" fill="#2b3e52" stroke="#2b3e52" stroke-width="1.51"/><path d="M482,396L436,570L651,464Z" fill="#31475f" stroke="#31475f" stroke-width="1.51"/><path d="M482,396L414,491L436,570Z" fill="#30455b" stroke="#30455b" stroke-width="1.51"/><path d="M700,687L915,744L773,601Z" fill="#263d54" stroke="#263d54" stroke-width="1.51"/><path d="M523,763L653,774L700,687Z" fill="#263a4f" stroke="#263a4f" stroke-width="1.51"/><path d="M955,629L1095,678L1021,564Z" fill="#22364c" stroke="#22364c" stroke-width="1.51"/><path d="M732,868L915,744L700,687Z" fill="#23394e" stroke="#23394e" stroke-width="1.51"/><path d="M699,211L466,233L716,362Z" fill="#31455a" stroke="#31455a" stroke-width="1.51"/><path d="M482,396L300,333L414,491Z" fill="#304559" stroke="#304559" stroke-width="1.51"/><path d="M577,134L466,233L699,211Z" fill="#304255" stroke="#304255" stroke-width="1.51"/><path d="M563,17L577,134L690,-21Z" fill="#2f4051" stroke="#2f4051" stroke-width="1.51"/><path d="M1064,232L972,164L879,336Z" fill="#293c50" stroke="#293c50" stroke-width="1.51"/><path d="M436,570L467,698L700,687Z" fill="#293d52" stroke="#293d52" stroke-width="1.51"/><path d="M417,714L467,698L436,570Z" fill="#283a4e" stroke="#283a4e" stroke-width="1.51"/><path d="M467,698L523,763L700,687Z" fill="#263a4f" stroke="#263a4f" stroke-width="1.51"/><path d="M1021,564L1112,361L879,336Z" fill="#294158" stroke="#294158" stroke-width="1.51"/><path d="M972,164L941,122L841,145Z" fill="#293b4d" stroke="#293b4d" stroke-width="1.51"/><path d="M690,-21L577,134L699,211Z" fill="#2f4153" stroke="#2f4153" stroke-width="1.51"/><path d="M972,164L1019,133L941,122Z" fill="#28384a" stroke="#28384a" stroke-width="1.51"/><path d="M1112,361L1064,232L879,336Z" fill="#283c51" stroke="#283c51" stroke-width="1.51"/><path d="M416,63L384,284L466,233Z" fill="#2f3e4e" stroke="#2f3e4e" stroke-width="1.51"/><path d="M466,233L384,284L482,396Z" fill="#304255" stroke="#304255" stroke-width="1.51"/><path d="M467,698L417,714L523,763Z" fill="#26374b" stroke="#26374b" stroke-width="1.51"/><path d="M277,571L417,714L436,570Z" fill="#293b4f" stroke="#293b4f" stroke-width="1.51"/><path d="M277,571L436,570L414,491Z" fill="#2d4054" stroke="#2d4054" stroke-width="1.51"/><path d="M653,774L732,868L700,687Z" fill="#253a50" stroke="#253a50" stroke-width="1.51"/><path d="M633,987L732,868L653,774Z" fill="#253a4f" stroke="#253a4f" stroke-width="1.51"/><path d="M633,987L653,774L523,763Z" fill="#24374b" stroke="#24374b" stroke-width="1.51"/><path d="M1064,232L1019,133L972,164Z" fill="#27384a" stroke="#27384a" stroke-width="1.51"/><path d="M915,744L1095,678L955,629Z" fill="#20344a" stroke="#20344a" stroke-width="1.51"/><path d="M1021,564L1208,394L1112,361Z" fill="#263d54" stroke="#263d54" stroke-width="1.51"/><path d="M1090,849L1095,678L915,744Z" fill="#1b2e42" stroke="#1b2e42" stroke-width="1.51"/><path d="M732,868L799,897L915,744Z" fill="#21364b" stroke="#21364b" stroke-width="1.51"/><path d="M384,284L300,333L482,396Z" fill="#304255" stroke="#304255" stroke-width="1.51"/><path d="M228,304L300,333L384,284Z" fill="#2f3f50" stroke="#2f3f50" stroke-width="1.51"/><path d="M690,-21L841,145L795,-134Z" fill="#2d4054" stroke="#2d4054" stroke-width="1.51"/><path d="M690,-21L699,211L841,145Z" fill="#2f4154" stroke="#2f4154" stroke-width="1.51"/><path d="M577,134L416,63L466,233Z" fill="#2e3e4e" stroke="#2e3e4e" stroke-width="1.51"/><path d="M300,333L276,388L414,491Z" fill="#304357" stroke="#304357" stroke-width="1.51"/><path d="M1112,361L1264,221L1064,232Z" fill="#243649" stroke="#243649" stroke-width="1.51"/><path d="M1064,232L1186,64L1019,133Z" fill="#243445" stroke="#243445" stroke-width="1.51"/><path d="M1291,483L1208,394L1021,564Z" fill="#23394f" stroke="#23394f" stroke-width="1.51"/><path d="M981,-44L841,145L941,122Z" fill="#29394b" stroke="#29394b" stroke-width="1.51"/><path d="M276,388L277,571L414,491Z" fill="#2f4256" stroke="#2f4256" stroke-width="1.51"/><path d="M386,-43L493,26L546,-146Z" fill="#2e3d4e" stroke="#2e3d4e" stroke-width="1.51"/><path d="M563,17L493,26L577,134Z" fill="#2e3e4e" stroke="#2e3e4e" stroke-width="1.51"/><path d="M493,26L416,63L577,134Z" fill="#2e3c4c" stroke="#2e3c4c" stroke-width="1.51"/><path d="M300,333L228,304L276,388Z" fill="#2f3f51" stroke="#2f3f51" stroke-width="1.51"/><path d="M1095,678L1291,483L1021,564Z" fill="#20354a" stroke="#20354a" stroke-width="1.51"/><path d="M975,955L1090,849L915,744Z" fill="#1c2f42" stroke="#1c2f42" stroke-width="1.51"/><path d="M276,388L127,492L277,571Z" fill="#2e4053" stroke="#2e4053" stroke-width="1.51"/><path d="M211,87L228,304L384,284Z" fill="#2d3c4a" stroke="#2d3c4a" stroke-width="1.51"/><path d="M417,714L385,886L523,763Z" fill="#223345" stroke="#223345" stroke-width="1.51"/><path d="M732,868L633,987L799,897Z" fill="#273d52" stroke="#273d52" stroke-width="1.51"/><path d="M277,571L310,773L417,714Z" fill="#263748" stroke="#263748" stroke-width="1.51"/><path d="M214,675L310,773L277,571Z" fill="#263547" stroke="#263547" stroke-width="1.51"/><path d="M1188,763L1209,727L1095,678Z" fill="#192b3e" stroke="#192b3e" stroke-width="1.51"/><path d="M1090,849L1188,763L1095,678Z" fill="#192a3d" stroke="#192a3d" stroke-width="1.51"/><path d="M432,927L633,987L523,763Z" fill="#24374a" stroke="#24374a" stroke-width="1.51"/><path d="M799,897L975,955L915,744Z" fill="#203347" stroke="#203347" stroke-width="1.51"/><path d="M1019,133L981,-44L941,122Z" fill="#273747" stroke="#273747" stroke-width="1.51"/><path d="M1087,-40L981,-44L1019,133Z" fill="#263646" stroke="#263646" stroke-width="1.51"/><path d="M1302,507L1291,483L1095,678Z" fill="#1e3247" stroke="#1e3247" stroke-width="1.51"/><path d="M1208,394L1264,221L1112,361Z" fill="#233649" stroke="#233649" stroke-width="1.51"/><path d="M910,1053L975,955L799,897Z" fill="#23374b" stroke="#23374b" stroke-width="1.51"/><path d="M1090,849L1247,946L1188,763Z" fill="#172739" stroke="#172739" stroke-width="1.51"/><path d="M690,-21L546,-146L563,17Z" fill="#2f4053" stroke="#2f4053" stroke-width="1.51"/><path d="M493,26L386,-43L416,63Z" fill="#2d3c4b" stroke="#2d3c4b" stroke-width="1.51"/><path d="M795,-134L722,-113L690,-21Z" fill="#2f4357" stroke="#2f4357" stroke-width="1.51"/><path d="M310,773L385,886L417,714Z" fill="#223142" stroke="#223142" stroke-width="1.51"/><path d="M1209,727L1302,507L1095,678Z" fill="#1b2f42" stroke="#1b2f42" stroke-width="1.51"/><path d="M385,886L432,927L523,763Z" fill="#233446" stroke="#233446" stroke-width="1.51"/><path d="M1296,199L1264,221L1414,382Z" fill="#243547" stroke="#243547" stroke-width="1.51"/><path d="M1414,382L1264,221L1208,394Z" fill="#24374a" stroke="#24374a" stroke-width="1.51"/><path d="M127,492L214,675L277,571Z" fill="#2a3a4b" stroke="#2a3a4b" stroke-width="1.51"/><path d="M310,773L176,850L385,886Z" fill="#212f3f" stroke="#212f3f" stroke-width="1.51"/><path d="M981,-44L795,-134L841,145Z" fill="#2a3c4f" stroke="#2a3c4f" stroke-width="1.51"/><path d="M975,955L1067,939L1090,849Z" fill="#1d2e42" stroke="#1d2e42" stroke-width="1.51"/><path d="M1264,221L1186,64L1064,232Z" fill="#223142" stroke="#223142" stroke-width="1.51"/><path d="M1186,64L1087,-40L1019,133Z" fill="#233242" stroke="#233242" stroke-width="1.51"/><path d="M981,-44L933,-188L795,-134Z" fill="#2a3c4f" stroke="#2a3c4f" stroke-width="1.51"/><path d="M416,63L211,87L384,284Z" fill="#2d3b48" stroke="#2d3b48" stroke-width="1.51"/><path d="M546,-146L493,26L563,17Z" fill="#2e3f50" stroke="#2e3f50" stroke-width="1.51"/><path d="M546,-146L690,-21L722,-113Z" fill="#2f4256" stroke="#2f4256" stroke-width="1.51"/><path d="M1264,221L1296,199L1186,64Z" fill="#21303f" stroke="#21303f" stroke-width="1.51"/><path d="M1414,382L1208,394L1291,483Z" fill="#253a4f" stroke="#253a4f" stroke-width="1.51"/><path d="M19,388L127,492L228,304Z" fill="#2f4053" stroke="#2f4053" stroke-width="1.51"/><path d="M228,304L127,492L276,388Z" fill="#2f4052" stroke="#2f4052" stroke-width="1.51"/><path d="M1302,507L1414,382L1291,483Z" fill="#253b51" stroke="#253b51" stroke-width="1.51"/><path d="M1209,727L1307,694L1302,507Z" fill="#1c2e42" stroke="#1c2e42" stroke-width="1.51"/><path d="M1188,763L1307,694L1209,727Z" fill="#18293b" stroke="#18293b" stroke-width="1.51"/><path d="M1348,910L1307,694L1188,763Z" fill="#172638" stroke="#172638" stroke-width="1.51"/><path d="M585,-199L546,-146L722,-113Z" fill="#2f4256" stroke="#2f4256" stroke-width="1.51"/><path d="M975,955L1115,1153L1067,939Z" fill="#203245" stroke="#203245" stroke-width="1.51"/><path d="M841,1073L910,1053L799,897Z" fill="#263a4f" stroke="#263a4f" stroke-width="1.51"/><path d="M673,1109L841,1073L633,987Z" fill="#2b4258" stroke="#2b4258" stroke-width="1.51"/><path d="M633,987L841,1073L799,897Z" fill="#283d53" stroke="#283d53" stroke-width="1.51"/><path d="M263,-38L211,87L416,63Z" fill="#2c3845" stroke="#2c3845" stroke-width="1.51"/><path d="M454,1116L673,1109L633,987Z" fill="#2b3f53" stroke="#2b3f53" stroke-width="1.51"/><path d="M211,87L116,223L228,304Z" fill="#2d3947" stroke="#2d3947" stroke-width="1.51"/><path d="M795,-134L585,-199L722,-113Z" fill="#304459" stroke="#304459" stroke-width="1.51"/><path d="M1008,-183L933,-188L981,-44Z" fill="#28394c" stroke="#28394c" stroke-width="1.51"/><path d="M546,-146L409,-142L386,-43Z" fill="#2e3d4e" stroke="#2e3d4e" stroke-width="1.51"/><path d="M386,-43L263,-38L416,63Z" fill="#2d3a48" stroke="#2d3a48" stroke-width="1.51"/><path d="M933,-188L585,-199L795,-134Z" fill="#2e4357" stroke="#2e4357" stroke-width="1.51"/><path d="M1449,392L1414,382L1302,507Z" fill="#273c52" stroke="#273c52" stroke-width="1.51"/><path d="M585,-199L409,-142L546,-146Z" fill="#2e4051" stroke="#2e4051" stroke-width="1.51"/><path d="M409,-142L263,-38L386,-43Z" fill="#2d3b4a" stroke="#2d3b4a" stroke-width="1.51"/><path d="M211,87L37,18L116,223Z" fill="#2c3743" stroke="#2c3743" stroke-width="1.51"/><path d="M1205,-126L1087,-40L1186,64Z" fill="#223140" stroke="#223140" stroke-width="1.51"/><path d="M1205,-126L1008,-183L1087,-40Z" fill="#243445" stroke="#243445" stroke-width="1.51"/><path d="M1087,-40L1008,-183L981,-44Z" fill="#263749" stroke="#263749" stroke-width="1.51"/><path d="M432,927L454,1116L633,987Z" fill="#283b4e" stroke="#283b4e" stroke-width="1.51"/><path d="M385,886L353,1035L432,927Z" fill="#263646" stroke="#263646" stroke-width="1.51"/><path d="M214,675L176,850L310,773Z" fill="#22303f" stroke="#22303f" stroke-width="1.51"/><path d="M124,771L176,850L214,675Z" fill="#22303f" stroke="#22303f" stroke-width="1.51"/><path d="M127,492L90,687L214,675Z" fill="#283849" stroke="#283849" stroke-width="1.51"/><path d="M-30,580L90,687L127,492Z" fill="#293b4d" stroke="#293b4d" stroke-width="1.51"/><path d="M90,687L124,771L214,675Z" fill="#243343" stroke="#243343" stroke-width="1.51"/><path d="M1296,199L1354,112L1186,64Z" fill="#222f3e" stroke="#222f3e" stroke-width="1.51"/><path d="M1542,200L1354,112L1296,199Z" fill="#253444" stroke="#253444" stroke-width="1.51"/><path d="M176,850L353,1035L385,886Z" fill="#243342" stroke="#243342" stroke-width="1.51"/><path d="M1067,939L1247,946L1090,849Z" fill="#1a2b3d" stroke="#1a2b3d" stroke-width="1.51"/><path d="M1536,510L1449,392L1302,507Z" fill="#273d53" stroke="#273d53" stroke-width="1.51"/><path d="M1115,1153L1247,946L1067,939Z" fill="#1d2e40" stroke="#1d2e40" stroke-width="1.51"/><path d="M1414,382L1542,200L1296,199Z" fill="#263749" stroke="#263749" stroke-width="1.51"/><path d="M1536,510L1302,507L1307,694Z" fill="#21354a" stroke="#21354a" stroke-width="1.51"/><path d="M116,223L19,388L228,304Z" fill="#2e3d4e" stroke="#2e3d4e" stroke-width="1.51"/><path d="M-102,225L19,388L116,223Z" fill="#2e3d4e" stroke="#2e3d4e" stroke-width="1.51"/><path d="M353,1035L454,1116L432,927Z" fill="#29394a" stroke="#29394a" stroke-width="1.51"/><path d="M1372,11L1205,-126L1186,64Z" fill="#202e3e" stroke="#202e3e" stroke-width="1.51"/><path d="M1247,946L1348,910L1188,763Z" fill="#172738" stroke="#172738" stroke-width="1.51"/><path d="M1354,112L1372,11L1186,64Z" fill="#222f3d" stroke="#222f3d" stroke-width="1.51"/><path d="M1511,43L1372,11L1354,112Z" fill="#243241" stroke="#243241" stroke-width="1.51"/><path d="M90,687L-62,797L124,771Z" fill="#223141" stroke="#223141" stroke-width="1.51"/><path d="M156,1022L353,1035L176,850Z" fill="#253342" stroke="#253342" stroke-width="1.51"/><path d="M19,388L-30,580L127,492Z" fill="#2e4154" stroke="#2e4154" stroke-width="1.51"/><path d="M1348,910L1437,821L1307,694Z" fill="#182738" stroke="#182738" stroke-width="1.51"/><path d="M1348,910L1443,892L1437,821Z" fill="#1b2a3c" stroke="#1b2a3c" stroke-width="1.51"/><path d="M1247,946L1280,1050L1348,910Z" fill="#1a2b3d" stroke="#1a2b3d" stroke-width="1.51"/><path d="M910,1053L1115,1153L975,955Z" fill="#233549" stroke="#233549" stroke-width="1.51"/><path d="M841,1073L1115,1153L910,1053Z" fill="#26394d" stroke="#26394d" stroke-width="1.51"/><path d="M673,1109L1115,1153L841,1073Z" fill="#293d52" stroke="#293d52" stroke-width="1.51"/><path d="M454,1116L1115,1153L673,1109Z" fill="#2d4359" stroke="#2d4359" stroke-width="1.51"/><path d="M1595,571L1536,510L1581,678Z" fill="#263a4e" stroke="#263a4e" stroke-width="1.51"/><path d="M1449,392L1542,200L1414,382Z" fill="#283a4e" stroke="#283a4e" stroke-width="1.51"/><path d="M353,1035L287,1118L454,1116Z" fill="#2b3a4b" stroke="#2b3a4b" stroke-width="1.51"/><path d="M454,1116L287,1118L1115,1153Z" fill="#2d4257" stroke="#2d4257" stroke-width="1.51"/><path d="M156,1022L287,1118L353,1035Z" fill="#283746" stroke="#283746" stroke-width="1.51"/><path d="M156,1022L176,850L88,964Z" fill="#243241" stroke="#243241" stroke-width="1.51"/><path d="M1115,1153L1280,1050L1247,946Z" fill="#1c2d3e" stroke="#1c2d3e" stroke-width="1.51"/><path d="M263,-38L92,-34L211,87Z" fill="#2b3743" stroke="#2b3743" stroke-width="1.51"/><path d="M19,388L-116,442L-30,580Z" fill="#2f4357" stroke="#2f4357" stroke-width="1.51"/><path d="M152,-265L92,-34L263,-38Z" fill="#2c3845" stroke="#2c3845" stroke-width="1.51"/><path d="M88,964L176,850L124,771Z" fill="#212f3e" stroke="#212f3e" stroke-width="1.51"/><path d="M-30,580L-53,670L90,687Z" fill="#27384a" stroke="#27384a" stroke-width="1.51"/><path d="M-203,657L-53,670L-30,580Z" fill="#28394c" stroke="#28394c" stroke-width="1.51"/><path d="M92,-34L37,18L211,87Z" fill="#2b3844" stroke="#2b3844" stroke-width="1.51"/><path d="M-62,797L88,964L124,771Z" fill="#212f3e" stroke="#212f3e" stroke-width="1.51"/><path d="M1454,1047L1443,892L1348,910Z" fill="#1d2e3f" stroke="#1d2e3f" stroke-width="1.51"/><path d="M1581,678L1536,510L1307,694Z" fill="#223548" stroke="#223548" stroke-width="1.51"/><path d="M1321,-201L1172,-262L1205,-126Z" fill="#203041" stroke="#203041" stroke-width="1.51"/><path d="M1205,-126L1172,-262L1008,-183Z" fill="#233445" stroke="#233445" stroke-width="1.51"/><path d="M1008,-183L1172,-262L933,-188Z" fill="#26384b" stroke="#26384b" stroke-width="1.51"/><path d="M933,-188L1172,-262L585,-199Z" fill="#2a3e52" stroke="#2a3e52" stroke-width="1.51"/><path d="M1640,324L1542,200L1449,392Z" fill="#293c4f" stroke="#293c4f" stroke-width="1.51"/><path d="M1372,11L1321,-201L1205,-126Z" fill="#223141" stroke="#223141" stroke-width="1.51"/><path d="M-102,225L-116,442L19,388Z" fill="#2f4053" stroke="#2f4053" stroke-width="1.51"/><path d="M1536,510L1640,324L1449,392Z" fill="#2a3f55" stroke="#2a3f55" stroke-width="1.51"/><path d="M1581,678L1307,694L1437,821Z" fill="#1c2e40" stroke="#1c2e40" stroke-width="1.51"/><path d="M-68,51L-102,225L116,223Z" fill="#2c3a48" stroke="#2c3a48" stroke-width="1.51"/><path d="M1542,200L1511,43L1354,112Z" fill="#263443" stroke="#263443" stroke-width="1.51"/><path d="M1545,850L1581,678L1437,821Z" fill="#1c2d3f" stroke="#1c2d3f" stroke-width="1.51"/><path d="M1533,-203L1321,-201L1372,11Z" fill="#253444" stroke="#253444" stroke-width="1.51"/><path d="M-53,670L-62,797L90,687Z" fill="#243445" stroke="#243445" stroke-width="1.51"/><path d="M-157,798L-62,797L-53,670Z" fill="#223243" stroke="#223243" stroke-width="1.51"/><path d="M1605,932L1545,850L1443,892Z" fill="#1e2f40" stroke="#1e2f40" stroke-width="1.51"/><path d="M1443,892L1545,850L1437,821Z" fill="#1b2c3d" stroke="#1b2c3d" stroke-width="1.51"/><path d="M-90,-75L-68,51L37,18Z" fill="#2c3947" stroke="#2c3947" stroke-width="1.51"/><path d="M37,18L-68,51L116,223Z" fill="#2c3744" stroke="#2c3744" stroke-width="1.51"/><path d="M1626,100L1567,17L1511,43Z" fill="#283645" stroke="#283645" stroke-width="1.51"/><path d="M1595,571L1640,324L1536,510Z" fill="#2b4157" stroke="#2b4157" stroke-width="1.51"/><path d="M1667,249L1640,324L1719,673Z" fill="#2e4359" stroke="#2e4359" stroke-width="1.51"/><path d="M92,-34L-90,-75L37,18Z" fill="#2c3946" stroke="#2c3946" stroke-width="1.51"/><path d="M409,-142L152,-265L263,-38Z" fill="#2c3a48" stroke="#2c3a48" stroke-width="1.51"/><path d="M585,-199L152,-265L409,-142Z" fill="#2d3d4e" stroke="#2d3d4e" stroke-width="1.51"/><path d="M1172,-262L152,-265L585,-199Z" fill="#2f4358" stroke="#2f4358" stroke-width="1.51"/><path d="M1280,1050L1405,1092L1348,910Z" fill="#1e2e3f" stroke="#1e2e3f" stroke-width="1.51"/><path d="M1115,1153L1405,1092L1280,1050Z" fill="#1e2f40" stroke="#1e2f40" stroke-width="1.51"/><path d="M1405,1092L1454,1047L1348,910Z" fill="#1f3041" stroke="#1f3041" stroke-width="1.51"/><path d="M1626,100L1511,43L1542,200Z" fill="#283646" stroke="#283646" stroke-width="1.51"/><path d="M1511,43L1533,-203L1372,11Z" fill="#263544" stroke="#263544" stroke-width="1.51"/><path d="M-222,370L-116,442L-102,225Z" fill="#2f4154" stroke="#2f4154" stroke-width="1.51"/><path d="M-222,370L-203,458L-116,442Z" fill="#304459" stroke="#304459" stroke-width="1.51"/><path d="M-116,442L-203,458L-30,580Z" fill="#2e4256" stroke="#2e4256" stroke-width="1.51"/><path d="M88,964L8,1051L156,1022Z" fill="#263545" stroke="#263545" stroke-width="1.51"/><path d="M156,1022L8,1051L287,1118Z" fill="#283646" stroke="#283646" stroke-width="1.51"/><path d="M-94,903L8,1051L88,964Z" fill="#263444" stroke="#263444" stroke-width="1.51"/><path d="M-94,903L88,964L-62,797Z" fill="#233141" stroke="#233141" stroke-width="1.51"/><path d="M1640,324L1667,249L1542,200Z" fill="#2b3c4e" stroke="#2b3c4e" stroke-width="1.51"/><path d="M1719,673L1640,324L1595,571Z" fill="#2a3f55" stroke="#2a3f55" stroke-width="1.51"/><path d="M-157,798L-94,903L-62,797Z" fill="#213040" stroke="#213040" stroke-width="1.51"/><path d="M-68,51L-166,158L-102,225Z" fill="#2c3a49" stroke="#2c3a49" stroke-width="1.51"/><path d="M-272,-74L-166,158L-68,51Z" fill="#2c3947" stroke="#2c3947" stroke-width="1.51"/><path d="M1667,249L1626,100L1542,200Z" fill="#2a3a4b" stroke="#2a3a4b" stroke-width="1.51"/><path d="M-203,657L-157,798L-53,670Z" fill="#243547" stroke="#243547" stroke-width="1.51"/><path d="M-241,189L-222,370L-102,225Z" fill="#2e3e50" stroke="#2e3e50" stroke-width="1.51"/><path d="M-203,458L-203,657L-30,580Z" fill="#2b3e52" stroke="#2b3e52" stroke-width="1.51"/><path d="M-222,370L-203,657L-203,458Z" fill="#2e4258" stroke="#2e4258" stroke-width="1.51"/><path d="M1581,678L1719,673L1595,571Z" fill="#25384c" stroke="#25384c" stroke-width="1.51"/><path d="M1545,850L1660,751L1581,678Z" fill="#1f3042" stroke="#1f3042" stroke-width="1.51"/><path d="M1605,932L1660,751L1545,850Z" fill="#1e2e40" stroke="#1e2e40" stroke-width="1.51"/><path d="M152,-265L12,-209L92,-34Z" fill="#2c3a48" stroke="#2c3a48" stroke-width="1.51"/><path d="M-53,-183L-90,-75L92,-34Z" fill="#2c3a48" stroke="#2c3a48" stroke-width="1.51"/><path d="M1454,1047L1605,932L1443,892Z" fill="#1f3042" stroke="#1f3042" stroke-width="1.51"/><path d="M1676,1048L1605,932L1454,1047Z" fill="#233446" stroke="#233446" stroke-width="1.51"/><path d="M1660,751L1719,673L1581,678Z" fill="#233548" stroke="#233548" stroke-width="1.51"/><path d="M1676,1048L1719,673L1660,751Z" fill="#1f3042" stroke="#1f3042" stroke-width="1.51"/><path d="M12,-209L-53,-183L92,-34Z" fill="#2c3a49" stroke="#2c3a49" stroke-width="1.51"/><path d="M-222,370L-287,925L-203,657Z" fill="#27394d" stroke="#27394d" stroke-width="1.51"/><path d="M-166,158L-241,189L-102,225Z" fill="#2d3c4c" stroke="#2d3c4c" stroke-width="1.51"/><path d="M-272,-74L-241,189L-166,158Z" fill="#2c3947" stroke="#2c3947" stroke-width="1.51"/><path d="M-272,-74L-68,51L-90,-75Z" fill="#2c3a49" stroke="#2c3a49" stroke-width="1.51"/><path d="M1567,17L1533,-203L1511,43Z" fill="#283647" stroke="#283647" stroke-width="1.51"/><path d="M1321,-201L1533,-203L1172,-262Z" fill="#233344" stroke="#233344" stroke-width="1.51"/><path d="M1670,-148L1533,-203L1567,17Z" fill="#293849" stroke="#293849" stroke-width="1.51"/><path d="M-94,903L-77,1074L8,1051Z" fill="#273646" stroke="#273646" stroke-width="1.51"/><path d="M8,1051L-77,1074L287,1118Z" fill="#293747" stroke="#293747" stroke-width="1.51"/><path d="M-244,1075L-77,1074L-94,903Z" fill="#273747" stroke="#273747" stroke-width="1.51"/><path d="M-287,925L-94,903L-157,798Z" fill="#223243" stroke="#223243" stroke-width="1.51"/><path d="M1719,673L1716,-45L1667,249Z" fill="#2d4052" stroke="#2d4052" stroke-width="1.51"/><path d="M1667,249L1716,-45L1626,100Z" fill="#2a3947" stroke="#2a3947" stroke-width="1.51"/><path d="M1626,100L1716,-45L1567,17Z" fill="#2a3847" stroke="#2a3847" stroke-width="1.51"/><path d="M1716,-45L1670,-148L1567,17Z" fill="#2a3949" stroke="#2a3949" stroke-width="1.51"/><path d="M1605,932L1676,1048L1660,751Z" fill="#213244" stroke="#213244" stroke-width="1.51"/><path d="M1405,1092L1676,1048L1454,1047Z" fill="#233446" stroke="#233446" stroke-width="1.51"/><path d="M1115,1153L1676,1048L1405,1092Z" fill="#213344" stroke="#213344" stroke-width="1.51"/><path d="M-203,657L-287,925L-157,798Z" fill="#203142" stroke="#203142" stroke-width="1.51"/><path d="M-241,189L-287,925L-222,370Z" fill="#2e4358" stroke="#2e4358" stroke-width="1.51"/><path d="M-245,-136L-272,-74L-90,-75Z" fill="#2c3b4b" stroke="#2c3b4b" stroke-width="1.51"/><path d="M-241,189L-272,-74L-287,925Z" fill="#2f4256" stroke="#2f4256" stroke-width="1.51"/><path d="M-53,-183L-245,-136L-90,-75Z" fill="#2c3b4a" stroke="#2c3b4a" stroke-width="1.51"/><path d="M12,-209L-245,-136L-53,-183Z" fill="#2c3b4b" stroke="#2c3b4b" stroke-width="1.51"/><path d="M152,-265L-245,-136L12,-209Z" fill="#2c3b4a" stroke="#2c3b4a" stroke-width="1.51"/><path d="M-77,1074L-244,1075L287,1118Z" fill="#2a3949" stroke="#2a3949" stroke-width="1.51"/><path d="M-287,925L-244,1075L-94,903Z" fill="#253647" stroke="#253647" stroke-width="1.51"/></svg>